<svg width="272" height="583" viewBox="0 0 272 583" fill="none" xmlns="http://www.w3.org/2000/svg">
<g opacity="0.8">
<ellipse cx="135.962" cy="562.419" rx="135.962" ry="20.0749" fill="#E8E6E7"/>
<ellipse cx="136.327" cy="562.374" rx="102.616" ry="13.0785" fill="#D4CECE"/>
</g>
<ellipse rx="30.0454" ry="81.3019" transform="matrix(0.999631 -0.0271576 0.0234427 0.999725 91.6392 83.7217)" fill="#1B1A18"/>
<ellipse rx="31.3033" ry="81.299" transform="matrix(0.998115 0.0613693 -0.0569828 0.998375 181.701 83.0879)" fill="#1B1A18"/>
<path d="M49.6664 443.018C46.379 431.183 53.7755 354.26 57.8847 317.278C122.316 278.487 194.857 301.115 223.073 317.278C228.004 427.403 227.182 438.909 223.073 454.523C218.964 470.138 207.458 507.121 132.671 503.011C57.8847 498.902 53.7755 457.811 49.6664 443.018Z" fill="#0D0F0E"/>
<path d="M265.42 248.549C265.42 318.228 222.728 345.169 140.199 345.169C57.6692 345.169 12.6868 318.228 12.6868 248.549C12.6868 178.869 68.3588 119.987 140.132 119.987C211.142 119.987 265.42 178.869 265.42 248.549Z" fill="#373635"/>
<path d="M264.699 264.565C260.837 317.268 222.136 346.796 139.856 346.796C57.5756 346.796 18.03 318.066 12.729 264.565C12.7291 209.451 44.0344 155.152 139.789 155.152C226.522 155.152 268.56 211.863 264.699 264.565Z" fill="#1B1A18"/>
<ellipse cx="139.249" cy="275.57" rx="87.1141" ry="47.1012" fill="#B6B5B7"/>
<path d="M224.807 280.36C222.474 304.31 186.502 322.672 139.249 322.672C91.9963 322.672 53.6904 301.117 53.6904 280.36C53.6904 257.874 91.9963 239.646 139.249 239.646C186.502 239.646 224.807 257.874 224.807 280.36Z" fill="#DDDDDD"/>
<path d="M205.817 285.997C204.996 287.641 201.708 295.859 187.737 295.859C178.697 295.859 172.944 291.75 170.479 285.997" stroke="black" stroke-width="2" stroke-linecap="round" stroke-linejoin="round"/>
<path d="M73.502 285.997C74.3238 287.641 77.6111 295.859 91.5822 295.859C100.622 295.859 106.375 291.75 108.841 285.997" stroke="black" stroke-width="2" stroke-linecap="round" stroke-linejoin="round"/>
<path d="M94.87 414.203C94.87 389.239 106.376 351.744 139.249 351.744C172.944 351.744 184.449 389.239 184.449 414.203C184.449 439.166 163.082 456.938 139.249 456.938C113.772 456.938 94.8699 439.166 94.87 414.203Z" fill="#161415"/>
<path d="M216.523 441.104C210.606 441.104 160.913 480.004 136.806 499.454C120.369 515.068 83.3867 529.04 72.7029 536.436C64.1559 542.353 66.9501 550.407 69.4156 553.694C89.1396 570.953 116.26 571.775 126.122 569.309C134.012 567.337 208.305 521.369 244.466 498.632C251.862 493.701 265.833 480.716 262.546 468.224C258.437 452.609 248.575 440.282 236.247 437.816C226.385 435.844 218.989 439.186 216.523 441.104Z" fill="#1B1A18"/>
<path d="M104.556 525.972C110.473 525.972 116.884 543.23 117.706 552.271C117.706 555.558 115.369 556.106 112.775 555.558C96.338 553.092 85.3511 548.781 83.1887 547.34C78.2577 544.052 79.9013 541.587 83.1887 537.478C86.476 533.368 97.1598 525.972 104.556 525.972Z" fill="#2A2927"/>
<path d="M198.236 538.094C188.374 524.945 172.212 516.178 165.363 513.439C162.898 512.37 64.2779 449.336 53.5941 441.94C42.9103 434.543 31.4047 437.83 28.9392 438.652C25.8206 439.692 13.3244 449.336 7.57155 464.129C2.9693 475.963 10.311 486.592 14.968 490.428C30.5828 507.686 101.26 547.956 114.41 558.64C124.929 567.187 133.038 568.776 135.777 568.502C193.305 570.967 210.564 554.531 198.236 538.094Z" fill="#161415" stroke="#161415"/>
<path d="M162.26 525.972C156.343 525.972 149.932 543.23 149.111 552.271C149.111 555.558 151.447 556.106 154.042 555.558C170.478 553.092 181.465 548.781 183.627 547.34C188.559 544.052 186.915 541.587 183.627 537.478C180.34 533.368 169.656 525.972 162.26 525.972Z" fill="#2A2927"/>
<path d="M115.416 380.775L106.376 386.528V416.935C114.32 417.757 131.524 418.908 136.784 416.935C143.358 414.47 141.715 407.073 140.071 401.321C138.427 395.568 126.922 383.24 122.813 380.775C119.525 378.802 116.512 379.953 115.416 380.775Z" fill="#D0CFCD"/>
<path d="M10.2214 384.617C11.599 373.966 45.5863 339.087 57.0658 328.732C55.6883 331.572 56.1173 360.784 53.7785 374.755C50.3346 374.755 19.4051 384.617 10.2214 384.617Z" fill="#1B1A18"/>
<path d="M9.72218 385.439C11.0371 381.494 14.3308 373.933 18.4399 373.111C69.3935 371.468 96.8363 377.221 100.945 378.042C104.233 378.7 106.698 378.864 107.52 382.973C107.52 393.657 107.52 413.381 106.698 417.49C106.205 419.956 104.233 424.065 96.8363 424.065C76.8384 423.243 36.8426 424.887 25.337 422.421C11.5817 419.474 8.44605 410.829 8.07851 410.094C7.25668 408.45 8.07851 390.37 9.72218 385.439Z" fill="#2C2829"/>
<path d="M147.139 363.332C154.853 367.44 162.626 375.884 165.548 379.593L162.918 413.824C164.087 414.11 164.496 414.509 156.782 413.824C147.139 412.969 138.373 399.276 134.866 389.862C131.36 380.448 133.113 371.035 133.113 368.467C133.113 365.9 137.496 358.198 147.139 363.332Z" fill="#D0CFCD"/>
<path d="M261.702 391.191C260.324 380.54 234.695 336.622 223.215 326.267C224.593 329.107 219.749 363.611 220.61 377.22C224.054 377.22 252.518 391.191 261.702 391.191Z" fill="#1B1A18"/>
<path d="M261.971 391.408C261.064 387.35 255.162 378.372 251.158 377.137C200.634 370.326 176.143 374.384 171.971 374.784C168.634 375.104 166.165 375.017 164.93 379.022C163.845 389.65 161.841 409.272 162.241 413.443C162.482 415.946 164.082 420.764 171.44 421.516C179.658 424.803 230.612 426.447 242.117 427.268C256.149 428.271 260.662 416.796 261.102 416.102C262.087 414.55 263.106 396.48 261.971 391.408Z" fill="#2C2829"/>
</svg>
